<svg xmlns="http://www.w3.org/2000/svg" xmlns:xlink="http://www.w3.org/1999/xlink" width="50" zoomAndPan="magnify" viewBox="0 0 37.5 37.499999" height="50" preserveAspectRatio="xMidYMid meet" version="1.0"><defs><clipPath id="c9bc9ef129"><path d="M 3.507812 2.859375 L 33.855469 2.859375 L 33.855469 33.207031 L 3.507812 33.207031 Z M 3.507812 2.859375 " clip-rule="nonzero"/></clipPath></defs><g clip-path="url(#c9bc9ef129)"><path fill="#ffffff" d="M 6.304688 13.390625 L 30.75 13.390625 L 32.167969 30.136719 C 32.214844 30.714844 32.070312 31.203125 31.800781 31.527344 C 31.535156 31.855469 31.164062 32.054688 30.617188 32.054688 L 6.4375 32.054688 C 5.890625 32.054688 5.515625 31.855469 5.25 31.527344 C 4.984375 31.203125 4.835938 30.714844 4.882812 30.136719 Z M 23.03125 4.171875 C 23.269531 4.160156 23.511719 4.21875 23.753906 4.351562 C 24.269531 4.625 24.699219 5.269531 24.855469 6.066406 L 23.613281 6.066406 C 22.738281 6.023438 22.738281 7.359375 23.613281 7.3125 L 28.402344 7.3125 C 29.015625 7.3125 29.488281 7.46875 29.804688 7.71875 C 30.121094 7.96875 30.320312 8.316406 30.367188 8.890625 L 30.644531 12.140625 L 6.410156 12.140625 L 6.6875 8.890625 C 6.734375 8.316406 6.933594 7.96875 7.25 7.71875 C 7.566406 7.46875 8.039062 7.3125 8.652344 7.3125 L 10.933594 7.3125 C 10.96875 7.574219 11.019531 7.828125 11.097656 8.078125 C 11.535156 9.445312 12.628906 10.445312 13.929688 10.445312 C 14.808594 10.488281 14.808594 9.152344 13.929688 9.195312 C 13.277344 9.195312 12.601562 8.671875 12.289062 7.699219 C 11.976562 6.726562 12.171875 5.5625 12.714844 4.859375 C 13.054688 4.417969 13.4375 4.195312 13.835938 4.171875 C 14.078125 4.160156 14.324219 4.21875 14.5625 4.351562 C 15.078125 4.625 15.507812 5.269531 15.664062 6.066406 L 13.621094 6.066406 C 12.789062 6.066406 12.78125 7.316406 13.628906 7.316406 L 20.121094 7.316406 C 20.160156 7.574219 20.207031 7.828125 20.289062 8.078125 C 20.726562 9.445312 21.816406 10.445312 23.121094 10.445312 C 23.996094 10.488281 23.996094 9.152344 23.121094 9.195312 C 22.464844 9.195312 21.789062 8.671875 21.476562 7.699219 C 21.164062 6.726562 21.359375 5.5625 21.902344 4.859375 C 22.242188 4.417969 22.628906 4.195312 23.03125 4.171875 Z M 14.128906 2.953125 C 14.011719 2.945312 13.894531 2.945312 13.777344 2.953125 C 13.625 2.964844 13.46875 2.988281 13.316406 3.027344 C 12.710938 3.179688 12.144531 3.550781 11.722656 4.09375 C 11.285156 4.660156 11.019531 5.347656 10.925781 6.066406 L 8.652344 6.066406 C 7.832031 6.066406 7.066406 6.273438 6.476562 6.738281 C 5.886719 7.207031 5.511719 7.929688 5.4375 8.789062 L 3.636719 30.035156 C 3.5625 30.890625 3.785156 31.703125 4.277344 32.3125 C 4.773438 32.925781 5.550781 33.304688 6.4375 33.304688 L 30.617188 33.304688 C 31.503906 33.304688 32.28125 32.925781 32.773438 32.3125 C 33.269531 31.703125 33.488281 30.890625 33.414062 30.035156 L 31.613281 8.789062 C 31.542969 7.929688 31.167969 7.207031 30.578125 6.738281 C 29.988281 6.273438 29.222656 6.066406 28.402344 6.066406 L 26.125 6.066406 C 25.960938 4.851562 25.339844 3.78125 24.34375 3.246094 C 23.761719 2.933594 23.113281 2.871094 22.507812 3.027344 C 21.902344 3.179688 21.332031 3.550781 20.914062 4.09375 C 20.476562 4.660156 20.210938 5.347656 20.113281 6.066406 L 16.933594 6.066406 C 16.773438 4.851562 16.148438 3.78125 15.152344 3.246094 C 14.824219 3.070312 14.476562 2.972656 14.128906 2.953125 Z M 14.128906 2.953125 " fill-opacity="1" fill-rule="evenodd"/></g><path fill="#ffffff" d="M 24.074219 17.683594 L 25.007812 18.617188 C 25.171875 18.78125 25.1875 19.136719 24.886719 19.4375 L 16.667969 27.660156 C 16.539062 27.785156 16.125 27.8125 15.96875 27.660156 L 12.164062 23.855469 C 11.863281 23.554688 11.878906 23.199219 12.042969 23.035156 L 12.976562 22.101562 C 13.144531 21.9375 13.496094 21.921875 13.796875 22.222656 L 15.875 24.300781 C 16.117188 24.542969 16.515625 24.542969 16.761719 24.300781 L 23.253906 17.804688 C 23.585938 17.472656 23.863281 17.472656 24.074219 17.683594 Z M 23.558594 16.292969 C 23.082031 16.355469 22.683594 16.605469 22.367188 16.921875 L 16.316406 22.972656 L 14.683594 21.339844 C 13.972656 20.628906 12.804688 20.503906 12.09375 21.214844 L 11.15625 22.152344 C 10.445312 22.863281 10.566406 24.027344 11.277344 24.742188 L 15.082031 28.539062 C 15.78125 29.242188 16.886719 29.207031 17.550781 28.539062 L 25.769531 20.324219 C 26.480469 19.613281 26.605469 18.445312 25.890625 17.730469 L 24.960938 16.796875 C 24.570312 16.40625 24.035156 16.230469 23.558594 16.292969 Z M 23.558594 16.292969 " fill-opacity="1" fill-rule="nonzero"/></svg>